<svg xmlns="http://www.w3.org/2000/svg" width="19" height="19" viewBox="0 0 19 19">
  <path id="LinkedIn" d="M19,21.207v7.351H14.928V21.7c0-1.723-.589-2.9-2.063-2.9a2.241,2.241,0,0,0-2.089,1.559A3.042,3.042,0,0,0,10.64,21.4v7.16H6.566s.055-11.617,0-12.82H10.64v1.817c-.008.014-.019.028-.027.041h.027v-.041a4.021,4.021,0,0,1,3.671-2.118C16.991,15.437,19,17.269,19,21.207ZM2.305,9.558a2.216,2.216,0,1,0-.054,4.431h.027a2.217,2.217,0,1,0,.027-4.431Zm-2.063,19H4.314V15.738H.242Z" transform="translate(0 -9.558)" fill="#fff"/>
</svg>
